<?xml version="1.0" encoding="UTF-8" standalone="no"?>
<svg
   viewBox="0 0 99.911154 54.940487"
   version="1.1"
   id="svg1"
   xml:space="preserve"
   xmlns:xlink="http://www.w3.org/1999/xlink"
   xmlns="http://www.w3.org/2000/svg"
   xmlns:svg="http://www.w3.org/2000/svg"><style
     id="style838">.coil {  }
</style><defs
     id="defs1"><linearGradient
       id="linearGradient834"><stop
         style="stop-color:#e31e24;stop-opacity:1;"
         offset="0"
         id="stop834" /><stop
         style="stop-color:#eb9c56;stop-opacity:1;"
         offset="0.1"
         id="stop836" /><stop
         style="stop-color:#eb9c56;stop-opacity:1;"
         offset="0.89999998"
         id="stop837" /><stop
         style="stop-color:#e31e24;stop-opacity:1;"
         offset="1"
         id="stop835" /></linearGradient><linearGradient
       xlink:href="#linearGradient834"
       id="linearGradient835"
       x1="-4.6665442e-05"
       y1="47.30677"
       x2="55.209934"
       y2="47.30677"
       gradientUnits="userSpaceOnUse" /><filter
       style="color-interpolation-filters:sRGB"
       id="filter837"
       x="-0.032103325"
       y="-0.14583915"
       width="1.0642067"
       height="1.2918306"><feGaussianBlur
         stdDeviation="0.39872651"
         id="feGaussianBlur837" /></filter></defs><g
     id="layer1"
     transform="translate(0.95699036)"><path
       id="rect1"
       style="display:inline;fill:none;stroke:#e31e24;stroke-width:1.53256;stroke-opacity:1"
       d="M 6.5123283,0.76628125 H 92.441835 c 3.18331,0 5.746047,2.53480395 5.746047,5.68341685 V 47.525304 c 0,3.148613 -2.562737,5.683417 -5.746047,5.683417 H 54.443653 c -0.605396,0 -3.814069,0.300513 -4.888413,-3.225435 C 48.929752,47.930462 48.189857,41.41188 47.757292,41.397237 46.977555,41.370847 46.047017,52.914472 45.250715,52.860019 44.454412,52.805569 43.768329,41.455057 42.960212,41.397237 42.152094,41.339417 41.272006,52.92109 40.458043,52.860019 39.64408,52.798949 38.976972,41.461442 38.163133,41.397237 37.349293,41.333037 36.473117,52.92724 35.665371,52.860019 34.857625,52.792799 34.161736,41.467357 33.366053,41.397237 32.57037,41.327117 31.650349,52.93292 30.872699,52.860019 30.095049,52.787119 29.322621,41.472804 28.568973,41.397237 27.815325,41.321667 26.803704,52.938132 26.080027,52.860019 25.35635,52.781909 24.459629,41.47778 23.771893,41.397237 23.084158,41.316697 21.93318,52.942875 21.287355,52.860019 20.641531,52.777189 19.572759,41.482288 18.974814,41.397237 18.376869,41.312187 17.038778,52.947149 16.494683,52.860019 15.950588,52.772889 14.662009,41.486328 14.177734,41.397237 13.693458,41.308147 12.120498,52.950953 11.702011,52.860019 11.283524,52.769084 9.7273829,41.489897 9.3806543,41.397237 9.0339257,41.304576 7.1783394,52.954289 6.9093387,52.860019 6.6403379,52.765749 4.768878,41.492999 4.5835746,41.397237 4.3982712,41.301475 2.2123027,52.957155 2.1166667,52.860019 2.0210302,52.762882 0.76623197,48.689067 0.76623333,47.525304 L 0.76628125,6.4496981 C 0.76628492,3.3010852 3.3290182,0.76628125 6.5123283,0.76628125 Z" /><path
       id="path834"
       style="display:inline;fill:none;stroke:url(#linearGradient835);stroke-width:1.53256;stroke-linecap:square;stroke-linejoin:miter;filter:url(#filter837)"
       d="m 54.443653,53.208721 c -0.605396,0 -3.814069,0.300513 -4.888413,-3.225435 C 48.929752,47.930462 48.189857,41.41188 47.757292,41.397237 46.977555,41.370847 46.047017,52.914472 45.250715,52.860019 44.454412,52.805569 43.768329,41.455057 42.960212,41.397237 42.152094,41.339417 41.272006,52.92109 40.458043,52.860019 39.64408,52.798949 38.976972,41.461442 38.163133,41.397237 37.349293,41.333037 36.473117,52.92724 35.665371,52.860019 34.857625,52.792799 34.161736,41.467357 33.366053,41.397237 32.57037,41.327117 31.650349,52.93292 30.872699,52.860019 30.095049,52.787119 29.322621,41.472804 28.568973,41.397237 27.815325,41.321667 26.803704,52.938132 26.080027,52.860019 25.35635,52.781909 24.459629,41.47778 23.771893,41.397237 23.084158,41.316697 21.93318,52.942875 21.287355,52.860019 20.641531,52.777189 19.572759,41.482288 18.974814,41.397237 18.376869,41.312187 17.038778,52.947149 16.494683,52.860019 15.950588,52.772889 14.662009,41.486328 14.177734,41.397237 13.693458,41.308147 12.120498,52.950953 11.702011,52.860019 11.283524,52.769084 9.7273829,41.489897 9.3806543,41.397237 9.0339257,41.304576 7.1783394,52.954289 6.9093387,52.860019 6.6403379,52.765749 4.768878,41.492999 4.5835746,41.397237 4.3982712,41.301475 2.2123027,52.957155 2.1166667,52.860019 2.0210302,52.762882 0.76623197,48.689067 0.76623333,47.525304"
       class="coil" /><path
       d="M 9.8594821,36.035553 V 6.7860402 H 21.304944 q 10.597649,0 10.597649,10.5976498 v 8.054213 q 0,10.59765 -10.597649,10.59765 z m 3.5608099,-3.221685 h 8.096605 q 6.824886,0 6.824886,-6.824887 v -9.156369 q 0,-6.824886 -6.824886,-6.824886 H 13.420292 Z M 38.261197,29.549791 V 13.271802 q 0,-6.4857618 6.485761,-6.4857618 h 12.801961 l 1.907577,1.4836709 V 10.007726 H 44.704568 q -2.882561,0 -2.882561,2.88256 v 17.041021 q 0,2.882561 2.882561,2.882561 h 12.03893 V 22.300999 h -7.206402 v -3.221685 h 10.767212 v 16.956239 h -15.55735 q -6.485761,0 -6.485761,-6.485762 z m 28.401705,0 V 13.271802 q 0,-6.4857618 6.485761,-6.4857618 h 12.801961 l 1.907577,1.4836709 V 10.007726 H 73.106272 q -2.88256,0 -2.88256,2.88256 v 17.041021 q 0,2.882561 2.88256,2.882561 h 12.03893 V 22.300999 h -7.206401 v -3.221685 h 10.767212 v 16.956239 h -15.55735 q -6.485761,0 -6.485761,-6.485762 z"
       id="text2"
       style="font-size:42.3906px;font-family:Oxanium;-inkscape-font-specification:Oxanium;fill:#393185;stroke-width:2.60526"
       transform="scale(1.0100531,0.99004692)"
       aria-label="DGG" /><text
       xml:space="preserve"
       style="font-style:normal;font-variant:normal;font-weight:normal;font-stretch:normal;font-size:12.8116px;font-family:Oxanium;-inkscape-font-specification:Oxanium;text-align:start;writing-mode:lr-tb;direction:ltr;text-anchor:start;display:inline;fill:#393185;fill-opacity:1;stroke:none;stroke-width:0.787381;stroke-dasharray:none;stroke-opacity:1;paint-order:normal"
       x="57.190052"
       y="48.942894"
       id="text1"
       transform="scale(0.9774921,1.0230262)"><tspan
         id="tspan1"
         style="font-style:normal;font-variant:normal;font-weight:normal;font-stretch:normal;font-size:12.8116px;font-family:Oxanium;-inkscape-font-specification:Oxanium;fill:#393185;fill-opacity:1;stroke:none;stroke-width:0.787381"
         x="57.190052"
         y="48.942894">PIECE</tspan></text></g></svg>
